<?xml version="1.0" standalone="no"?><!DOCTYPE svg PUBLIC "-//W3C//DTD SVG 1.1//EN" "http://www.w3.org/Graphics/SVG/1.1/DTD/svg11.dtd"><svg class="icon" width="200px" height="200.00px" viewBox="0 0 1024 1024" version="1.1" xmlns="http://www.w3.org/2000/svg"><path fill="#333333" d="M854.299084 884.424673 699.161059 701.474482c78.815731-62.570683 125.202181-157.738498 125.202181-259.165449 0-88.361339-34.410652-171.435375-96.89376-233.916051-62.480676-62.481892-145.553495-96.892544-233.917267-96.892544-88.361339 0-171.435375 34.410652-233.917267 96.892544C197.153053 270.873658 162.742401 353.946478 162.742401 442.309033c0 88.363772 34.410652 171.436591 96.891328 233.9197 62.481892 62.480676 145.555928 96.891328 233.917267 96.891328 63.436696 0 124.684032-17.888285 177.784518-51.802682l156.98925 185.133469c3.369181 3.972471 8.165095 6.014657 12.995066 6.014657 3.890979 0 7.803851-1.328212 11.006398-4.040585C859.497597 902.340933 860.380639 891.596042 854.299084 884.424673zM668.255815 682.21055c-1.850009 0.670187-3.620958 1.655399-5.20946 3.005504-0.790602 0.670187-1.492413 1.406055-2.128544 2.178413-0.201908 0.137443-0.39895 0.278535-0.598425 0.413546-49.260592 33.531259-106.928326 51.256558-166.76839 51.256558-163.629092 0-296.753106-133.124014-296.753106-296.754322 0-163.629092 133.122798-296.751889 296.753106-296.751889 163.630308 0 296.754322 133.122798 296.754322 296.751889C790.305318 537.388058 744.860293 626.34539 668.255815 682.21055zM407.908112 230.439834c-69.765162 21.887515-105.684039 68.696024-123.53097 104.110133-19.22501 38.147159-22.032256 71.26244-22.141724 72.6539-0.740733 9.355864 6.231161 17.522175 15.584592 18.289667 0.471929 0.038922 0.940208 0.058383 1.406055 0.058383 8.757439 0 16.200045-6.733497 16.954158-15.612567 0.024326-0.284617 2.610203-28.85576 19.184872-61.196251 21.71115-42.362893 56.276274-71.232033 102.734486-85.807086 8.973942-2.814543 13.965682-12.371098 11.151139-21.34504C426.437392 232.617031 416.88327 227.624074 407.908112 230.439834z" /></svg>