<?xml version="1.0" standalone="no"?><!DOCTYPE svg PUBLIC "-//W3C//DTD SVG 1.1//EN" "http://www.w3.org/Graphics/SVG/1.1/DTD/svg11.dtd"><svg class="icon" width="200px" height="197.68px" viewBox="0 0 1036 1024" version="1.1" xmlns="http://www.w3.org/2000/svg"><path fill="#333333" d="M359.691105 55.139831l-93.913926 101.524255L105.877399 156.664086c-55.838749 0-101.523231 45.688575-101.523231 101.528348L4.354168 867.336938c0 55.838749 45.684482 101.522208 101.523231 101.522208l812.19506 0c55.838749 0 101.529371-45.683459 101.529371-101.522208L1019.60183 258.192434c0-55.838749-45.690622-101.528348-101.529371-101.528348L758.173702 156.664086l-93.907787-101.524255L359.691105 55.139831 359.691105 55.139831zM511.975441 816.575834c-139.597385 0-253.807566-114.216321-253.807566-253.813706s114.211205-253.807566 253.807566-253.807566 253.813706 114.211205 253.813706 253.807566S651.571802 816.575834 511.975441 816.575834L511.975441 816.575834zM511.975441 816.575834M349.535815 562.762127c0 21.268396 4.229325 42.518373 12.368702 62.165852 8.133238 19.647479 20.175505 37.661761 35.20992 52.695153 15.034415 15.041578 33.053814 27.076682 52.701293 35.21606 19.641339 8.139378 40.897456 12.362562 62.159712 12.362562 21.268396 0 42.518373-4.223185 62.165852-12.362562 19.647479-8.139378 37.660738-20.175505 52.695153-35.21606 15.041578-15.033391 27.076682-33.047674 35.21606-52.695153 8.139378-19.647479 12.362562-40.897456 12.362562-62.165852 0-21.262256-4.223185-42.518373-12.362562-62.159712-8.139378-19.647479-20.175505-37.666878-35.21606-52.701293-15.034415-15.035438-33.047674-27.071565-52.695153-35.20992-19.647479-8.139378-40.897456-12.368702-62.165852-12.368702-21.262256 0-42.518373 4.229325-62.159712 12.368702-19.647479 8.139378-37.666878 20.175505-52.701293 35.20992-15.035438 15.034415-27.076682 33.053814-35.20992 52.701293C353.765139 520.243755 349.535815 541.499871 349.535815 562.762127L349.535815 562.762127zM349.535815 562.762127" /></svg>