<?xml version="1.0" standalone="no"?><!DOCTYPE svg PUBLIC "-//W3C//DTD SVG 1.1//EN" "http://www.w3.org/Graphics/SVG/1.1/DTD/svg11.dtd"><svg class="icon" width="200px" height="200.00px" viewBox="0 0 1024 1024" version="1.1" xmlns="http://www.w3.org/2000/svg"><path fill="#333333" d="M888.143311 497.090429 888.143311 497.090429 634.666272 243.611344l-0.002047 0c-8.470929-8.472975-22.207791-8.472975-30.680766 0.002047-8.476045 8.476045-8.476045 22.208814-0.00307 30.68486l0 0 216.431308 216.433354L395.556453 490.731604c-11.982916 0-21.698185 9.714246-21.698185 21.698185 0 11.982916 9.714246 21.697161 21.698185 21.697161l424.837848 0L603.046111 751.356436l0 0.004093c0 0 0 0-0.00307 0-8.475022 8.470929-8.475022 22.211884 0 30.682813 8.470929 8.473999 22.206768 8.473999 30.679743 0.005117l0 0 254.416434-254.272147 0 0 0.002047-0.002047c4.237511-4.235464 6.356778-9.788947 6.356778-15.343453C894.498042 506.880399 892.381845 501.325893 888.143311 497.090429zM817.983391 667.508773c-11.83249 0-21.434172 9.478885-21.674649 21.251l-0.022513 0 0 137.767713c0 14.465456-11.907191 26.232454-26.543539 26.232454L198.414467 852.759941c-14.634302 0-26.54047-11.766998-26.54047-26.232454L171.873997 199.13027c0-14.465456 11.906168-26.232454 26.54047-26.232454l571.328223 0c14.637372 0 26.543539 11.766998 26.543539 26.232454l0 136.483464c0 11.982916 9.713222 21.698185 21.697161 21.698185s21.697161-9.714246 21.697161-21.698185L839.680553 199.13027c0-38.393425-31.373545-69.6278-69.938885-69.6278L198.414467 129.502469c-38.562271 0-69.935816 31.234375-69.935816 69.6278l0 627.396193c0 38.395472 31.374568 69.6278 69.935816 69.6278l571.328223 0c38.565341 0 69.938885-31.232328 69.938885-69.6278L839.681576 688.759773l-0.022513 0C839.418586 676.987658 829.816904 667.508773 817.983391 667.508773z" /></svg>